<svg xmlns="http://www.w3.org/2000/svg" width="1200" height="720" viewBox="0 0 1200 720" role="img" aria-label="Argus Portfolio dashboard preview">
  <rect width="1200" height="720" fill="#f5f7f8"/>
  <rect x="40" y="36" width="1120" height="648" rx="16" fill="#ffffff" stroke="#d9e0e6"/>
  <text x="82" y="86" fill="#64727f" font-family="Inter, Arial, sans-serif" font-size="16" font-weight="700">DEVELOPMENT WORKSPACE</text>
  <text x="82" y="128" fill="#1f2933" font-family="Inter, Arial, sans-serif" font-size="40" font-weight="800">Portfolio</text>
  <rect x="82" y="166" width="1018" height="82" rx="8" fill="#f8fafb" stroke="#d3dde5"/>
  <text x="106" y="200" fill="#25313b" font-family="Inter, Arial, sans-serif" font-size="17" font-weight="700">Holdings CSV path</text>
  <rect x="106" y="214" width="750" height="30" rx="6" fill="#ffffff" stroke="#cbd5dd"/>
  <text x="122" y="235" fill="#64727f" font-family="Inter, Arial, sans-serif" font-size="14">examples/portfolio/holdings_sample.csv</text>
  <rect x="878" y="207" width="100" height="38" rx="8" fill="#2f7d62"/>
  <text x="906" y="231" fill="#ffffff" font-family="Inter, Arial, sans-serif" font-size="15" font-weight="800">Import</text>
  <text x="106" y="274" fill="#1f2933" font-family="Inter, Arial, sans-serif" font-size="24" font-weight="800">Portfolio charts</text>
  <rect x="82" y="296" width="318" height="236" rx="8" fill="#ffffff" stroke="#d3dde5"/>
  <text x="110" y="330" fill="#25313b" font-family="Inter, Arial, sans-serif" font-size="19" font-weight="800">Asset allocation</text>
  <circle cx="238" cy="414" r="62" fill="none" stroke="#e1e7ec" stroke-width="24"/>
  <path d="M238 352 A62 62 0 1 1 212 470" fill="none" stroke="#2f7d62" stroke-width="24"/>
  <path d="M212 470 A62 62 0 0 1 186 389" fill="none" stroke="#4c7bd9" stroke-width="24"/>
  <path d="M186 389 A62 62 0 0 1 238 352" fill="none" stroke="#d68132" stroke-width="24"/>
  <text x="238" y="410" text-anchor="middle" fill="#64727f" font-family="Inter, Arial, sans-serif" font-size="13" font-weight="700">Total</text>
  <text x="238" y="430" text-anchor="middle" fill="#1f2933" font-family="Inter, Arial, sans-serif" font-size="19" font-weight="800">$3.5K</text>
  <circle cx="114" cy="502" r="6" fill="#2f7d62"/>
  <text x="128" y="507" fill="#34414c" font-family="Inter, Arial, sans-serif" font-size="14">Equity 57.1%</text>
  <circle cx="230" cy="502" r="6" fill="#4c7bd9"/>
  <text x="244" y="507" fill="#34414c" font-family="Inter, Arial, sans-serif" font-size="14">Bond 28.6%</text>
  <circle cx="114" cy="524" r="6" fill="#d68132"/>
  <text x="128" y="529" fill="#34414c" font-family="Inter, Arial, sans-serif" font-size="14">Cash 14.3%</text>
  <rect x="424" y="296" width="318" height="236" rx="8" fill="#ffffff" stroke="#d3dde5"/>
  <text x="452" y="330" fill="#25313b" font-family="Inter, Arial, sans-serif" font-size="19" font-weight="800">Position concentration</text>
  <text x="452" y="370" fill="#34414c" font-family="Inter, Arial, sans-serif" font-size="15" font-weight="800">AAPL</text>
  <text x="674" y="370" fill="#64727f" font-family="Inter, Arial, sans-serif" font-size="14">57.1%</text>
  <rect x="452" y="382" width="246" height="14" rx="7" fill="#e7edf2"/>
  <rect x="452" y="382" width="141" height="14" rx="7" fill="#2f7d62"/>
  <text x="452" y="426" fill="#34414c" font-family="Inter, Arial, sans-serif" font-size="15" font-weight="800">BND</text>
  <text x="674" y="426" fill="#64727f" font-family="Inter, Arial, sans-serif" font-size="14">28.6%</text>
  <rect x="452" y="438" width="246" height="14" rx="7" fill="#e7edf2"/>
  <rect x="452" y="438" width="70" height="14" rx="7" fill="#4c7bd9"/>
  <text x="452" y="482" fill="#34414c" font-family="Inter, Arial, sans-serif" font-size="15" font-weight="800">CASH</text>
  <text x="674" y="482" fill="#64727f" font-family="Inter, Arial, sans-serif" font-size="14">14.3%</text>
  <rect x="452" y="494" width="246" height="14" rx="7" fill="#e7edf2"/>
  <rect x="452" y="494" width="35" height="14" rx="7" fill="#d68132"/>
  <rect x="766" y="296" width="334" height="236" rx="8" fill="#ffffff" stroke="#d3dde5"/>
  <text x="794" y="330" fill="#25313b" font-family="Inter, Arial, sans-serif" font-size="19" font-weight="800">Current vs target</text>
  <text x="794" y="370" fill="#34414c" font-family="Inter, Arial, sans-serif" font-size="15" font-weight="800">Equity</text>
  <text x="1000" y="370" fill="#64727f" font-family="Inter, Arial, sans-serif" font-size="14">57.1% / 40%</text>
  <rect x="794" y="382" width="250" height="10" rx="5" fill="#e7edf2"/>
  <rect x="794" y="382" width="143" height="10" rx="5" fill="#2f7d62"/>
  <rect x="794" y="398" width="100" height="10" rx="5" fill="#d68132"/>
  <text x="794" y="438" fill="#34414c" font-family="Inter, Arial, sans-serif" font-size="15" font-weight="800">Bond</text>
  <text x="1000" y="438" fill="#64727f" font-family="Inter, Arial, sans-serif" font-size="14">28.6% / 40%</text>
  <rect x="794" y="450" width="250" height="10" rx="5" fill="#e7edf2"/>
  <rect x="794" y="450" width="72" height="10" rx="5" fill="#2f7d62"/>
  <rect x="794" y="466" width="100" height="10" rx="5" fill="#d68132"/>
  <text x="794" y="506" fill="#34414c" font-family="Inter, Arial, sans-serif" font-size="15" font-weight="800">Cash</text>
  <text x="1000" y="506" fill="#64727f" font-family="Inter, Arial, sans-serif" font-size="14">14.3% / 20%</text>
  <rect x="82" y="560" width="318" height="74" rx="8" fill="#ffffff" stroke="#d3dde5"/>
  <text x="110" y="588" fill="#64727f" font-family="Inter, Arial, sans-serif" font-size="14" font-weight="700">Total value</text>
  <text x="110" y="618" fill="#1f2933" font-family="Inter, Arial, sans-serif" font-size="28" font-weight="800">$3,500</text>
  <rect x="424" y="560" width="318" height="74" rx="8" fill="#ffffff" stroke="#d3dde5"/>
  <text x="452" y="588" fill="#64727f" font-family="Inter, Arial, sans-serif" font-size="14" font-weight="700">Rebalance suggestions</text>
  <text x="452" y="618" fill="#1f2933" font-family="Inter, Arial, sans-serif" font-size="20" font-weight="800">Reduce concentration</text>
  <rect x="766" y="560" width="334" height="74" rx="8" fill="#ffffff" stroke="#d3dde5"/>
  <text x="794" y="588" fill="#64727f" font-family="Inter, Arial, sans-serif" font-size="14" font-weight="700">Risk flags</text>
  <text x="794" y="618" fill="#9b3325" font-family="Inter, Arial, sans-serif" font-size="20" font-weight="800">2 warnings</text>
</svg>
